<?xml version="1.0" encoding="utf-8"?>
<!-- Generator: Adobe Illustrator 24.1.1, SVG Export Plug-In . SVG Version: 6.00 Build 0)  -->
<svg version="1.1" id="Layer_1" xmlns="http://www.w3.org/2000/svg" xmlns:xlink="http://www.w3.org/1999/xlink" x="0px" y="0px"
	 viewBox="0 0 612 612" style="enable-background:new 0 0 612 612;" xml:space="preserve">
<style type="text/css">
	.st0{fill:#EEF0F0;}
	.st1{fill:#C0BFBF;}
	.st2{fill:#FFFFFF;stroke:#000000;stroke-miterlimit:10;}
	.st3{fill:url(#SVGID_1_);}
</style>
<g>
	<g id="XMLID_3_">
		<g>
			<path class="st0" d="M6.17,329.32v18.18c0,39.27,31.84,71.11,71.11,71.11h19.19c0.76,0,1.37-0.61,1.37-1.37v-66.29L6.17,329.32z"
				/>
			<polygon class="st1" points="6.17,269.68 6.17,329.32 97.84,350.95 97.84,291.32 			"/>
			<polygon class="st0" points="6.17,209.15 6.17,269.68 97.84,291.32 97.84,230.79 			"/>
			<polygon class="st1" points="6.17,157.12 6.17,209.15 97.84,230.79 97.84,178.75 			"/>
			<path class="st0" d="M6.17,107.34v49.78l91.67,21.63v-55.2c0-0.62-0.43-1.16-1.03-1.32L14.2,101.11
				C10.13,100.07,6.17,103.14,6.17,107.34z"/>
		</g>
		<g>
		</g>
	</g>
</g>
<g>
	<g id="XMLID_1_">
		<g>
			<path class="st0" d="M606.84,330.9v18.17c0,39.28-31.84,71.12-71.11,71.12h-19.2c-0.75,0-1.36-0.61-1.36-1.37v-66.29
				L606.84,330.9z"/>
			<polygon class="st1" points="606.84,271.26 606.84,330.9 515.17,352.53 515.17,292.9 			"/>
			<polygon class="st0" points="606.84,210.73 606.84,271.26 515.17,292.9 515.17,232.37 			"/>
			<polygon class="st1" points="606.84,158.7 606.84,210.73 515.17,232.37 515.17,180.33 			"/>
			<path class="st0" d="M606.84,108.92v49.78l-91.67,21.63v-55.2c0-0.62,0.42-1.16,1.03-1.32l82.61-21.12
				C602.88,101.64,606.84,104.72,606.84,108.92z"/>
		</g>
		<g>
		</g>
	</g>
</g>
<path class="st2" d="M394.97,684"/>
<path class="st2" d="M757.14,547.52"/>
<path class="st2" d="M689.57,606.98"/>
<path class="st2" d="M688.22,451.57"/>
<linearGradient id="SVGID_1_" gradientUnits="userSpaceOnUse" x1="91.0832" y1="90.7171" x2="521.9168" y2="521.5508">
	<stop  offset="0" style="stop-color:#FBF5CE"/>
	<stop  offset="0.4194" style="stop-color:#E2BE6F"/>
	<stop  offset="0.4619" style="stop-color:#D6B065"/>
	<stop  offset="0.5727" style="stop-color:#BF9851"/>
	<stop  offset="0.6867" style="stop-color:#B38B46"/>
	<stop  offset="0.8083" style="stop-color:#AF8643"/>
	<stop  offset="1" style="stop-color:#FEF2B5"/>
</linearGradient>
<path class="st3" d="M510.4,81.63H422.9c-1.55,0-3.04,0.62-4.14,1.72c-16.48,16.48-32.96,32.96-49.44,49.44
	c-2.95,2.95-7.9,1.92-9.53-1.92c-2.32-5.47-6.26-12.22-12.96-18.19c-5.61-5-11.39-7.88-15.85-9.55c-2.3-0.87-3.84-3.04-3.84-5.5
	v-7.64c0-3.23-2.62-5.86-5.86-5.86h-10.8h-7.96h-10.8c-3.23,0-5.86,2.62-5.86,5.86v7.64c0,2.46-1.54,4.63-3.84,5.5
	c-4.46,1.68-10.24,4.56-15.85,9.55c-6.7,5.97-10.64,12.71-12.96,18.19c-1.63,3.84-6.58,4.87-9.53,1.92
	c-16.48-16.48-32.96-32.96-49.44-49.44c-1.1-1.1-2.59-1.72-4.14-1.72H102.6c-3.23,0-5.86,2.62-5.86,5.86v437.29
	c0,3.23,2.62,5.86,5.86,5.86h125.98c3.23,0,5.86-2.62,5.86-5.86c0-31.35,0-62.7,0-94.05c0-3.23-2.62-5.86-5.86-5.86h-28.2
	c-3.23,0-5.86-2.62-5.86-5.86V259.3c0-5.46,6.81-7.95,10.33-3.78c28.23,33.45,56.45,66.91,84.68,100.36
	c1.12,1.33,2.78,2.09,4.52,2.08c4.15-0.03,8.29-0.07,12.44-0.1c4.15,0.03,8.29,0.07,12.44,0.1c1.74,0.01,3.4-0.75,4.52-2.08
	c28.23-33.45,56.45-66.91,84.68-100.36c3.52-4.17,10.33-1.68,10.33,3.78v159.72c0,3.23-2.62,5.86-5.86,5.86h-28.2
	c-3.23,0-5.86,2.62-5.86,5.86c0,31.35,0,62.7,0,94.05c0,3.23,2.62,5.86,5.86,5.86H510.4c3.23,0,5.86-2.62,5.86-5.86V87.49
	C516.26,84.25,513.64,81.63,510.4,81.63z"/>
</svg>
